<svg version="1.1" id="Layer_1" xmlns="http://www.w3.org/2000/svg" xmlns:xlink="http://www.w3.org/1999/xlink" x="0px" y="0px"
	 width="100%" viewBox="0 0 500 500" enable-background="new 0 0 500 500" xml:space="preserve">
<path fill="#FFFFFF" opacity="1.000000" stroke="none" 
	d="
M329.000000,501.000000 
	C219.333359,501.000000 110.166718,501.000000 1.000059,501.000000 
	C1.000039,334.333405 1.000039,167.666794 1.000020,1.000148 
	C167.666565,1.000099 334.333130,1.000099 500.999756,1.000049 
	C500.999847,167.666519 500.999847,334.333038 500.999939,500.999786 
	C443.833344,501.000000 386.666656,501.000000 329.000000,501.000000 
M306.045502,133.653793 
	C304.259644,137.705429 302.215729,141.670883 300.818909,145.852463 
	C300.283569,147.455124 300.588562,150.424988 301.655151,151.203140 
	C303.009247,152.191010 305.531128,151.683136 307.542084,151.611923 
	C308.302185,151.585007 309.041687,150.977234 309.912201,151.606140 
	C309.528839,162.702179 308.864258,173.798828 308.888611,184.893982 
	C308.899719,189.938965 309.723907,195.148987 311.196838,199.973480 
	C312.475800,204.162720 315.400452,207.611313 320.926361,207.610077 
	C321.938385,210.043808 322.608856,212.701553 324.029297,214.867416 
	C327.660156,220.403702 332.140442,220.398361 335.787537,214.821869 
	C337.585571,212.072693 339.148773,209.006683 340.046844,205.863602 
	C342.506378,197.255814 344.556946,188.531174 347.193542,180.420517 
	C353.441986,187.981354 359.690430,195.542206 366.197845,203.715637 
	C367.403564,205.094803 368.589813,206.491577 369.818054,207.850372 
	C380.561615,219.735992 389.072357,218.144058 394.703827,203.197021 
	C395.055450,202.263687 395.404633,201.322479 395.654846,200.358948 
	C401.215057,178.947800 399.823853,157.449738 396.203918,135.978790 
	C395.284149,130.523285 391.778259,127.154068 385.642548,126.118515 
	C383.523041,118.325539 380.159302,114.873817 374.559509,114.745575 
	C368.517914,114.607208 363.364532,118.836411 361.629578,126.283394 
	C360.591980,130.736954 360.625092,135.439957 359.578796,139.454346 
	C355.975555,135.681488 352.372284,131.908646 348.222778,127.728050 
	C344.987244,123.799469 342.353790,119.064552 338.393036,116.107254 
	C329.680298,109.601868 319.950623,112.453590 315.122040,122.170082 
	C313.949554,124.529480 313.069366,127.034149 311.349426,129.693176 
	C309.549164,130.781891 307.748901,131.870621 305.309448,132.391830 
	C306.089203,130.939209 307.098175,129.561600 307.602966,128.018997 
	C308.804077,124.348679 310.108551,120.153275 305.994171,117.730675 
	C302.156158,115.470779 298.179657,117.394295 296.002014,120.696640 
	C293.226532,124.905617 291.218109,129.678360 289.358765,134.397110 
	C288.821625,135.760300 289.382965,138.547363 290.429596,139.292328 
	C291.733398,140.220322 294.356750,140.361893 295.880005,139.672073 
	C298.367462,138.545563 300.398102,136.432632 302.678345,134.816055 
	C303.706421,134.087158 304.871338,133.551300 306.045502,133.653793 
M255.937561,112.600052 
	C255.767380,112.311928 255.515182,112.159927 254.806778,111.543159 
	C251.035782,104.457008 245.160049,99.794296 237.795731,96.906601 
	C227.069550,92.700661 215.852890,91.559654 204.478806,92.236778 
	C196.994675,92.682327 192.433441,96.582336 191.063309,104.068642 
	C189.872894,110.573044 189.745651,117.269737 189.085983,123.875206 
	C188.926376,125.473335 188.519958,127.046806 188.227036,128.631622 
	C187.089615,127.610184 186.854675,126.670944 186.568115,125.747726 
	C184.505051,119.100922 180.672134,115.682610 175.612427,115.961121 
	C170.681656,116.232529 166.038223,120.777550 165.321228,127.182533 
	C164.790985,131.919281 165.538208,136.786102 165.495422,141.593018 
	C165.404022,151.863586 165.589554,162.165222 164.803207,172.388107 
	C164.448349,177.001266 162.729385,181.920639 157.172165,182.893265 
	C157.129120,171.602356 157.300232,160.304886 156.953857,149.023285 
	C156.777100,143.266708 156.102570,137.443146 154.857361,131.826233 
	C153.748718,126.825439 150.317307,123.413994 144.462860,122.098671 
	C141.824768,113.922272 138.051392,110.440697 131.624802,110.253387 
	C124.399963,110.042809 118.401382,114.211098 116.188850,121.960670 
	C114.839714,126.686150 113.864616,131.788483 114.117065,136.649078 
	C114.796585,149.732773 115.851471,162.824066 117.468407,175.823883 
	C118.895424,187.296783 122.596313,197.894562 133.855682,204.777649 
	C139.361008,215.404022 148.797577,219.217087 159.973663,218.834671 
	C173.263504,218.379959 185.429993,215.047318 192.813492,202.292725 
	C195.505096,203.897400 198.196701,205.502075 200.973755,207.833832 
	C202.817352,213.815659 206.065994,218.370819 212.880112,218.937241 
	C220.854492,219.600082 226.113251,214.215454 226.875244,204.231339 
	C227.305237,198.597031 227.005295,192.910614 227.164642,187.251343 
	C227.567047,172.960373 229.800995,169.761719 242.973526,164.721222 
	C250.770096,161.737839 257.396545,157.127930 262.679688,150.691360 
	C272.704224,138.478302 269.399780,120.187416 256.014496,112.986053 
	C256.014496,112.986053 256.019135,113.051582 255.937561,112.600052 
M357.285797,324.608337 
	C357.584320,325.559967 357.819855,326.537079 358.192291,327.458862 
	C359.781403,331.391571 361.774048,336.190613 366.352234,335.564301 
	C369.279083,335.163879 371.802277,331.069061 374.267090,328.408752 
	C375.226593,327.373199 375.723022,325.779663 376.098663,324.352966 
	C378.505585,315.211365 380.820282,306.045410 383.718445,297.273773 
	C390.043579,304.888550 396.368744,312.503326 402.942841,320.759491 
	C406.521027,324.171722 409.777130,328.034790 413.760101,330.880463 
	C418.585419,334.327972 423.536530,333.428619 426.685181,328.427429 
	C429.374603,324.155609 431.601288,319.328613 432.826050,314.444580 
	C437.890015,294.251221 436.126434,273.925385 432.933533,253.676102 
	C431.973328,247.586670 428.556458,244.725296 422.056122,242.982300 
	C419.617676,234.143250 415.261353,230.538635 408.345612,231.997635 
	C402.414032,233.249008 399.405182,237.767731 398.194824,243.126953 
	C397.147400,247.764679 397.241608,252.660248 396.296844,256.957428 
	C392.527039,252.783783 388.757233,248.610153 384.550415,243.989975 
	C381.872101,240.668518 379.643127,236.808853 376.430878,234.126923 
	C366.953156,226.213928 355.850983,229.085190 351.068451,240.476822 
	C349.610046,243.950607 348.889313,247.734085 347.164337,251.217377 
	C346.485901,251.138550 345.807434,251.059723 344.926605,250.269592 
	C343.661163,244.727646 340.773682,240.367859 334.987946,239.153427 
	C328.936005,237.883102 325.152893,241.910980 321.768890,246.118286 
	C320.019501,248.293304 318.526642,250.674652 316.156982,252.567169 
	C314.491119,252.265289 312.825226,251.963409 311.000977,250.951279 
	C309.978088,246.320282 308.741974,241.474396 303.524139,240.156708 
	C295.537323,238.139755 290.611053,243.408218 285.864044,249.029907 
	C284.618042,247.442383 283.597260,245.993484 282.426910,244.677567 
	C278.416290,240.167984 273.575500,238.314194 269.750641,240.089661 
	C264.787720,242.393463 263.863129,246.960312 264.020264,251.788361 
	C264.142151,255.535599 264.700623,259.268616 264.390533,262.819183 
	C261.634064,257.792999 259.092926,252.568954 252.738159,249.983871 
	C250.374298,246.856506 248.466141,243.194000 245.552185,240.712646 
	C239.390747,235.465881 234.560211,237.234177 232.480179,244.985092 
	C231.927536,247.044449 231.609512,249.166763 230.695969,250.894623 
	C229.453903,250.080322 228.211853,249.266006 226.514145,248.023987 
	C221.763367,239.701233 215.072083,233.720032 205.468887,231.965729 
	C189.273239,229.007156 175.662201,233.540741 165.127304,246.128677 
	C162.162933,241.706375 160.160400,236.342957 153.952805,234.237137 
	C149.585846,225.558380 142.508087,220.035416 133.389923,217.211670 
	C122.048882,213.699524 110.433708,213.179092 98.826347,215.580643 
	C84.517494,218.541138 79.145676,224.359634 77.795067,238.782562 
	C77.225136,244.868820 77.857307,251.070038 77.979439,257.218262 
	C78.310165,273.865662 78.576256,290.515045 79.039070,307.158844 
	C79.263542,315.231598 82.660301,321.246735 91.041130,324.303436 
	C94.280022,333.881622 101.634521,337.711792 113.333755,335.554291 
	C136.003387,331.373810 153.768127,320.341431 164.195175,299.486237 
	C166.921173,308.277954 170.745926,316.297699 179.508698,321.614227 
	C183.269440,328.870819 189.252151,333.202911 197.150681,335.005524 
	C217.256805,339.594116 234.007904,329.463257 239.702454,308.897278 
	C241.287064,303.174408 241.827728,297.162537 243.300812,291.923889 
	C246.688919,298.943604 250.022995,305.990112 253.483627,312.973877 
	C255.894470,317.839111 259.130829,321.969482 264.677948,324.712952 
	C265.411530,326.000641 266.068054,327.339996 266.890869,328.567871 
	C273.302765,338.135956 282.343872,338.577789 289.674225,329.657501 
	C291.559631,327.363159 293.273071,324.927490 295.650299,322.711090 
	C296.361908,323.077332 297.073547,323.443573 298.002655,324.519073 
	C299.149414,326.341339 300.132507,328.294922 301.471283,329.963104 
	C307.212585,337.116882 314.514587,337.918854 321.341278,331.827942 
	C324.146942,329.324646 326.518372,326.207825 328.606903,323.052094 
	C334.186768,314.621094 339.506317,306.017792 345.052338,298.458221 
	C345.742767,304.312164 345.875458,310.306335 347.300476,315.975616 
	C348.435913,320.492889 351.287292,324.437378 357.285797,324.608337 
M125.539963,378.402832 
	C127.500229,381.488281 129.738098,384.436493 131.349289,387.694550 
	C133.288483,391.615845 135.982208,393.044312 140.376114,391.631653 
	C140.376114,382.824615 140.376114,373.920013 140.376114,364.756531 
	C138.264587,364.756531 136.381149,364.756531 134.068298,364.756531 
	C134.068298,369.935883 134.068298,374.814117 134.068298,381.245636 
	C130.776855,376.107483 128.101791,372.393158 125.927551,368.405731 
	C123.815483,364.532318 121.091965,363.419189 117.280769,364.928009 
	C117.280769,374.123169 117.280769,383.041656 117.280769,391.820251 
	C119.381668,391.820251 121.171410,391.820251 123.232323,391.820251 
	C123.232323,387.297058 123.192970,382.978516 123.309334,378.664215 
	C123.318336,378.330292 124.420990,378.025818 125.539963,378.402832 
M298.147797,374.014435 
	C299.413818,366.250977 293.437164,362.493011 279.630402,365.248383 
	C279.630402,374.035797 279.630402,382.828583 279.630402,391.777954 
	C281.740173,391.777954 283.642212,391.777954 286.034851,391.777954 
	C286.034851,388.666260 286.034851,385.782410 286.034851,381.628845 
	C288.750061,385.111938 290.252380,388.088074 292.653076,389.815918 
	C294.933838,391.457489 298.154327,391.793457 300.961639,392.703491 
	C301.142456,392.223541 301.323303,391.743561 301.504150,391.263611 
	C298.702881,387.840393 295.901611,384.417145 293.583496,381.584320 
	C295.294708,378.976318 296.682281,376.861572 298.147797,374.014435 
M449.905975,380.038300 
	C453.785004,377.762421 454.789368,374.176422 453.735107,370.175568 
	C452.652649,366.067841 449.257751,364.634308 445.303497,364.509613 
	C442.030975,364.406372 438.752594,364.488495 435.359070,364.488495 
	C435.359070,373.918060 435.359070,382.810028 435.359070,391.740082 
	C437.495087,391.740082 439.386200,391.740082 441.838257,391.740082 
	C441.838257,388.626007 441.838257,385.790558 441.838257,382.312164 
	C446.833038,386.523499 448.510468,394.975128 456.988953,391.371887 
	C454.325745,387.657318 451.759094,384.077423 449.905975,380.038300 
M380.393768,364.470886 
	C378.958344,364.549042 377.522919,364.627197 376.057129,364.707001 
	C376.057129,373.966309 376.057129,382.872681 376.057129,391.846069 
	C378.082733,391.846069 379.856750,391.846069 382.063263,391.846069 
	C382.063263,388.305725 382.063263,384.913086 382.063263,380.512634 
	C385.123322,384.002655 387.698395,386.544373 389.798950,389.431366 
	C392.673462,393.382141 396.309570,391.761780 400.538452,391.806366 
	C396.041321,386.630402 392.076111,382.066620 388.136230,377.531982 
	C391.730011,373.177917 395.051270,369.153992 398.472565,365.008881 
	C388.932312,361.804962 387.684998,371.619659 382.419006,374.537109 
	C382.001373,371.010468 381.619446,367.785156 380.393768,364.470886 
M321.498535,364.446045 
	C320.256256,365.213196 318.353699,365.694031 317.877045,366.793152 
	C314.336395,374.958282 311.078796,383.246124 307.615051,391.784546 
	C311.216431,392.011871 314.701294,393.363586 315.784027,388.425995 
	C315.951050,387.664429 317.374023,386.661469 318.224518,386.653442 
	C322.597015,386.612122 327.955688,384.808685 328.748413,391.868042 
	C331.023560,391.868042 332.983093,391.868042 335.508331,391.868042 
	C331.935822,383.000092 328.541382,374.437164 324.970673,365.948395 
	C324.655914,365.200073 323.188812,364.936462 321.498535,364.446045 
M418.403168,375.390076 
	C413.692383,375.937225 415.111572,372.839844 415.267731,369.973022 
	C418.331879,369.973022 421.239899,369.973022 424.219360,369.973022 
	C424.219360,367.983307 424.219360,366.419769 424.219360,364.677551 
	C419.015503,364.677551 414.115906,364.677551 409.008118,364.677551 
	C409.008118,373.835602 409.008118,382.763336 409.008118,391.710205 
	C414.176453,391.710205 419.235413,391.710205 424.601196,391.710205 
	C424.453827,389.808380 424.332672,388.244568 424.190186,386.405762 
	C420.987885,386.405762 418.216644,386.405762 415.240906,386.405762 
	C415.240906,384.520081 415.240906,382.946991 415.240906,381.002197 
	C418.200165,381.002197 420.955597,381.002197 423.884918,381.002197 
	C423.884918,379.041992 423.884918,377.453064 423.884918,375.390717 
	C422.252563,375.390717 420.792236,375.390717 418.403168,375.390076 
M151.402679,388.210236 
	C151.146271,390.645142 151.434677,392.334229 154.690659,392.111938 
	C158.761383,391.834015 162.865509,392.045135 166.960495,392.045135 
	C166.960495,389.944061 166.960495,388.353119 166.960495,386.245758 
	C163.849411,386.245758 160.979187,386.245758 157.839188,386.245758 
	C157.969223,384.163818 158.065460,382.622864 158.174774,380.872772 
	C161.295944,380.872772 163.915390,380.872772 166.739716,380.872772 
	C166.739716,379.050537 166.739716,377.472626 166.739716,375.433411 
	C163.847626,375.433411 161.104156,375.433411 158.169189,375.433411 
	C158.169189,373.423218 158.169189,371.877563 158.169189,369.867950 
	C161.301224,369.867950 164.184875,369.867950 167.296768,369.867950 
	C167.162628,367.793793 167.059753,366.203186 166.962189,364.694427 
	C161.686981,364.694427 156.782043,364.694427 151.402634,364.694427 
	C151.402634,372.406403 151.402634,379.835938 151.402679,388.210236 
M344.034882,371.740631 
	C340.958099,378.959625 342.363922,385.155701 348.050690,389.440125 
	C353.377808,393.453613 360.807739,393.502441 366.035461,389.448120 
	C365.177429,387.948334 364.308014,386.428741 363.484344,384.989075 
	C358.691925,386.618134 353.919312,387.466919 351.051270,382.974030 
	C349.659241,380.793427 349.315247,376.625427 350.480499,374.392181 
	C353.319824,368.950531 358.586273,369.727356 363.706268,371.494049 
	C364.547150,369.752136 365.312134,368.167419 366.069183,366.599152 
	C357.588531,361.956085 350.506714,363.492340 344.034882,371.740631 
M207.028412,389.674896 
	C211.151306,390.496948 215.258728,391.863434 219.401657,391.981140 
	C223.207581,392.089355 225.678040,389.408173 226.545944,385.525330 
	C227.423508,381.599121 225.324631,379.162292 222.378281,377.273468 
	C220.575775,376.117950 218.459106,375.451782 216.659851,374.292267 
	C215.840759,373.764435 215.448517,372.574249 214.862671,371.684509 
	C215.897827,371.083496 216.938171,369.979858 217.966995,369.990479 
	C219.864029,370.010010 221.754333,370.683746 223.749466,371.106537 
	C224.449203,369.425385 225.054626,367.970795 225.940399,365.842682 
	C222.767471,365.157990 220.080093,364.149658 217.372894,364.093262 
	C213.207489,364.006500 210.004837,365.986725 208.795502,370.256622 
	C207.589157,374.515930 209.707642,377.256134 213.235382,379.209595 
	C214.682968,380.011230 216.335800,380.518707 217.618271,381.516144 
	C218.533722,382.228119 218.987274,383.533997 219.646942,384.574860 
	C218.437347,385.269348 217.127563,386.668335 216.038742,386.513489 
	C213.679733,386.178009 211.433792,385.047394 208.648224,384.068604 
	C207.976440,385.701477 207.273590,387.409882 207.028412,389.674896 
M190.159698,364.120514 
	C189.331284,364.081726 188.497955,363.965210 187.675262,364.017151 
	C183.443985,364.284180 180.281631,366.285126 179.192535,370.429749 
	C178.028107,374.861023 180.564758,377.644531 184.299423,379.547058 
	C185.478027,380.147522 186.868866,380.500793 187.807114,381.356781 
	C188.774918,382.239777 189.309814,383.597290 190.034134,384.747162 
	C188.646332,385.372284 187.168564,386.652069 185.890823,386.476440 
	C183.712006,386.176971 181.658813,384.963562 179.352310,384.055115 
	C178.457703,385.634125 177.593430,387.159607 176.159958,389.689758 
	C179.961456,390.720642 183.152008,392.067322 186.438583,392.369629 
	C192.022736,392.883209 196.040833,390.190918 196.944244,386.031952 
	C198.101913,380.702484 194.718918,378.292175 190.735138,376.004242 
	C188.703125,374.837219 187.119064,372.890228 185.332535,371.295746 
	C187.911621,371.223938 190.490891,371.158295 193.069519,371.072388 
	C193.387451,371.061798 193.701752,370.942810 194.328995,370.806335 
	C194.905594,369.528656 195.557800,368.083466 196.367783,366.288635 
	C194.328293,365.529053 192.651093,364.904388 190.159698,364.120514 
M47.217449,364.998840 
	C47.217449,373.929199 47.217449,382.859589 47.217449,391.689117 
	C49.321819,391.689117 51.187386,391.689117 53.238415,391.689117 
	C53.238415,388.048096 53.238415,384.735474 53.238415,381.035217 
	C56.211109,381.035217 58.978165,381.035217 61.927223,381.035217 
	C61.927223,379.054718 61.927223,377.462402 61.927223,375.657379 
	C59.028267,375.469208 56.272152,375.290283 53.383347,375.102783 
	C53.383347,373.314941 53.383347,371.874878 53.383347,369.983459 
	C56.549126,369.983459 59.649223,369.983459 63.013027,369.983459 
	C62.906937,367.945526 62.825062,366.372742 62.728748,364.522583 
	C57.610992,364.522583 52.810383,364.522583 47.217449,364.998840 
M254.828766,364.437317 
	C253.592926,364.568420 252.357071,364.699493 250.893692,364.854706 
	C251.027451,366.802185 251.134338,368.358398 251.237534,369.860718 
	C253.578674,370.023285 255.497513,370.156494 257.636047,370.304993 
	C257.636047,377.665649 257.636047,384.633545 257.636047,391.783386 
	C259.783051,391.783386 261.676422,391.783386 263.977020,391.783386 
	C263.977020,384.462036 263.977020,377.373840 263.977020,370.153625 
	C266.277863,370.051056 268.179169,369.966278 270.362213,369.868958 
	C270.240967,367.852753 270.145691,366.268005 270.035553,364.436890 
	C265.031372,364.436890 260.394836,364.436890 254.828766,364.437317 
M96.562294,364.445587 
	C93.826820,364.445587 91.091354,364.445587 88.322235,364.445587 
	C88.322235,366.681396 88.322235,368.122131 88.322235,369.761200 
	C90.554070,369.954590 92.633072,370.134735 95.006859,370.340424 
	C95.006859,377.630676 95.006859,384.707733 95.006859,391.867432 
	C97.097763,391.867432 98.870239,391.867432 101.165512,391.867432 
	C101.165512,384.520172 101.165512,377.310150 101.165512,370.186981 
	C103.626755,370.027039 105.560661,369.901337 107.791443,369.756348 
	C107.629829,367.821869 107.500359,366.272125 107.347763,364.445618 
	C103.790009,364.445618 100.655296,364.445618 96.562294,364.445587 
M76.632713,392.017639 
	C77.424881,391.489166 78.898224,390.972198 78.907356,390.430542 
	C79.052155,381.842682 79.009193,373.251648 79.009193,364.745636 
	C76.620560,364.745636 74.871262,364.745636 72.807892,364.745636 
	C72.807892,373.163300 72.718224,381.299774 72.935959,389.428040 
	C72.959740,390.315643 74.753838,391.155823 76.632713,392.017639 
z"/>
<path fill="#FE7520" opacity="1.000000" stroke="none" 
	d="
M165.371353,246.796722 
	C175.662201,233.540741 189.273239,229.007156 205.468887,231.965729 
	C215.072083,233.720032 221.763367,239.701233 226.769867,248.654816 
	C228.154373,253.226562 229.283157,257.167450 230.440186,261.570496 
	C230.311356,271.485931 231.053787,281.059296 229.810745,290.367523 
	C227.189499,309.996246 216.670197,321.461243 199.332901,323.386200 
	C192.825500,324.108765 185.990067,321.876862 179.304184,320.991882 
	C170.745926,316.297699 166.921173,308.277954 164.007935,298.773987 
	C161.941147,288.583221 160.061569,279.104675 158.216690,269.801117 
	C156.862747,273.957397 155.626022,278.562927 153.883957,282.968628 
	C143.573975,309.042664 116.272423,326.586456 91.002121,323.510376 
	C82.660301,321.246735 79.263542,315.231598 79.039070,307.158844 
	C78.576256,290.515045 78.310165,273.865662 77.979439,257.218262 
	C77.857307,251.070038 77.225136,244.868820 77.795067,238.782562 
	C79.145676,224.359634 84.517494,218.541138 98.826347,215.580643 
	C110.433708,213.179092 122.048882,213.699524 133.389923,217.211670 
	C142.508087,220.035416 149.585846,225.558380 154.072174,234.937378 
	C155.807358,242.723312 157.423187,249.809006 158.994965,257.255646 
	C158.426483,258.881134 157.902069,260.145660 157.233749,261.757141 
	C162.077606,262.282227 160.714111,259.044647 161.077698,256.601257 
	C162.574783,253.106461 163.973068,249.951599 165.371353,246.796722 
M129.911514,259.366821 
	C127.243469,251.708694 121.191681,248.419632 113.768761,247.067200 
	C109.570839,246.302338 106.609650,248.297318 106.433113,252.457230 
	C106.011429,262.393677 105.674561,272.374359 106.164429,282.294647 
	C106.492195,288.932129 111.116508,290.599792 117.675949,286.846375 
	C120.004112,284.264587 122.732529,281.937958 124.575653,279.046936 
	C128.216583,273.335907 132.149796,267.527924 129.911514,259.366821 
M197.621063,304.876434 
	C203.853073,303.971039 206.889420,299.401794 207.796219,294.095459 
	C209.092255,286.511261 209.174774,278.719696 209.842377,270.264954 
	C209.577347,269.136749 209.342010,268.000549 209.042496,266.881592 
	C206.953537,259.077789 201.258835,256.734039 194.211868,260.729218 
	C188.942139,263.716858 185.632584,268.140503 185.206375,274.192596 
	C184.834808,279.468719 184.673569,284.825409 185.149185,290.080444 
	C185.908386,298.468658 189.906296,303.068451 197.621063,304.876434 
M158.605545,267.409973 
	C158.964111,267.317932 159.322693,267.225891 159.681259,267.133850 
	C159.358170,267.086609 159.035095,267.039368 158.605545,267.409973 
z"/>
<path fill="#FE7420" opacity="1.000000" stroke="none" 
	d="
M200.888306,207.106750 
	C198.196701,205.502075 195.505096,203.897400 192.434723,201.749222 
	C185.534714,189.626160 188.785950,176.887131 187.648315,164.611725 
	C186.906815,167.654022 186.517334,170.730194 185.986542,173.781815 
	C183.663040,187.140121 179.041840,198.877197 164.811157,203.903046 
	C154.413818,207.575073 144.031525,208.084335 133.602646,204.102539 
	C122.596313,197.894562 118.895424,187.296783 117.468407,175.823883 
	C115.851471,162.824066 114.796585,149.732773 114.117065,136.649078 
	C113.864616,131.788483 114.839714,126.686150 116.188850,121.960670 
	C118.401382,114.211098 124.399963,110.042809 131.624802,110.253387 
	C138.051392,110.440697 141.824768,113.922272 144.679535,122.827988 
	C145.199417,129.516647 145.732071,135.475403 145.747223,141.435471 
	C145.765778,148.737152 144.898590,156.063614 145.279388,163.334076 
	C145.543030,168.367676 146.784760,173.499527 148.501282,178.258591 
	C149.793625,181.841568 152.544708,184.883118 157.315506,183.793411 
	C162.729385,181.920639 164.448349,177.001266 164.803207,172.388107 
	C165.589554,162.165222 165.404022,151.863586 165.495422,141.593018 
	C165.538208,136.786102 164.790985,131.919281 165.321228,127.182533 
	C166.038223,120.777550 170.681656,116.232529 175.612427,115.961121 
	C180.672134,115.682610 184.505051,119.100922 186.568115,125.747726 
	C186.854675,126.670944 187.089615,127.610184 188.227036,128.631622 
	C188.519958,127.046806 188.926376,125.473335 189.085983,123.875206 
	C189.745651,117.269737 189.872894,110.573044 191.063309,104.068642 
	C192.433441,96.582336 196.994675,92.682327 204.478806,92.236778 
	C215.852890,91.559654 227.069550,92.700661 237.795731,96.906601 
	C245.160049,99.794296 251.035782,104.457008 255.017944,112.095367 
	C255.492447,112.782242 255.755798,112.916916 256.019135,113.051582 
	C256.019135,113.051582 256.014496,112.986053 255.910873,113.410690 
	C259.904083,126.868423 255.428940,137.198898 244.965363,144.857880 
	C239.588303,148.793716 233.302429,151.627396 227.148636,154.323135 
	C221.088013,156.978058 217.330231,161.028580 216.633377,167.610138 
	C216.232361,171.397598 216.192520,175.223450 215.995865,179.032333 
	C215.730865,184.164185 215.887741,189.359680 215.118759,194.414536 
	C213.724304,203.580856 210.124527,206.529495 200.888306,207.106750 
M229.912354,136.019363 
	C233.288101,132.866135 233.764374,128.944351 232.965897,123.954582 
	C231.051285,120.782837 229.718597,116.971786 227.092651,114.581520 
	C222.576508,110.470695 218.575256,112.349648 218.156235,118.473709 
	C217.818649,123.407516 218.134659,128.383072 218.060440,133.338593 
	C217.961105,139.971222 219.923233,141.301712 226.103745,138.551147 
	C227.265442,138.034149 228.247025,137.112442 229.912354,136.019363 
M189.059113,142.526642 
	C189.059113,138.787567 189.059113,135.048492 189.059113,131.309418 
	C188.539352,131.328217 188.019577,131.347031 187.499817,131.365829 
	C187.499817,141.740448 187.499817,152.115051 187.499817,162.489670 
	C188.017014,162.500275 188.534210,162.510895 189.051407,162.521500 
	C189.051407,156.186417 189.051407,149.851349 189.059113,142.526642 
z"/>
<path fill="#FE7420" opacity="1.000000" stroke="none" 
	d="
M231.183777,251.260162 
	C231.609512,249.166763 231.927536,247.044449 232.480179,244.985092 
	C234.560211,237.234177 239.390747,235.465881 245.552185,240.712646 
	C248.466141,243.194000 250.374298,246.856506 252.979858,250.646057 
	C258.309692,264.030853 263.397827,276.753448 268.651306,289.889526 
	C271.251221,285.218018 272.330048,281.077759 270.065552,276.337280 
	C268.480011,273.018127 267.585785,269.368744 266.339905,265.505585 
	C265.871124,264.409485 265.445282,263.674622 265.011658,262.969666 
	C265.003876,262.999603 265.065063,263.007965 265.065063,263.007965 
	C264.700623,259.268616 264.142151,255.535599 264.020264,251.788361 
	C263.863129,246.960312 264.787720,242.393463 269.750641,240.089661 
	C273.575500,238.314194 278.416290,240.167984 282.426910,244.677567 
	C283.597260,245.993484 284.618042,247.442383 285.864044,249.029907 
	C290.611053,243.408218 295.537323,238.139755 303.524139,240.156708 
	C308.741974,241.474396 309.978088,246.320282 311.012573,251.748184 
	C310.268250,256.252380 309.878387,260.084229 308.669464,263.637421 
	C306.914734,268.794769 304.257812,273.650696 302.588287,278.829468 
	C301.542755,282.072662 301.603485,285.672455 301.167816,289.112244 
	C301.496918,289.125610 301.825989,289.138977 302.155090,289.152344 
	C307.075989,277.089142 311.996918,265.025970 316.917847,252.962769 
	C318.526642,250.674652 320.019501,248.293304 321.768890,246.118286 
	C325.152893,241.910980 328.936005,237.883102 334.987946,239.153427 
	C340.773682,240.367859 343.661163,244.727646 344.974457,251.067108 
	C344.625610,255.309753 344.809143,258.947845 343.738037,262.168701 
	C336.793579,283.050446 324.506714,300.965240 311.557312,318.419769 
	C308.354706,322.736572 303.310638,324.391174 297.785156,323.809814 
	C297.073547,323.443573 296.361908,323.077332 295.135132,322.415649 
	C291.166168,317.994354 287.712402,313.868530 284.250732,309.733276 
	C279.272247,316.257050 275.374084,325.005157 264.434296,324.003571 
	C259.130829,321.969482 255.894470,317.839111 253.483627,312.973877 
	C250.022995,305.990112 246.688919,298.943604 243.017883,291.314819 
	C239.088409,280.806519 235.441879,270.907318 231.823517,260.558533 
	C231.629028,257.159393 231.406403,254.209778 231.183777,251.260162 
z"/>
<path fill="#FE7420" opacity="1.000000" stroke="none" 
	d="
M312.054779,129.472015 
	C313.069366,127.034149 313.949554,124.529480 315.122040,122.170082 
	C319.950623,112.453590 329.680298,109.601868 338.393036,116.107254 
	C342.353790,119.064552 344.987244,123.799469 348.587952,128.278488 
	C352.644562,136.186981 356.335968,143.545044 360.027374,150.903107 
	C360.470825,150.717056 360.914307,150.531006 361.357788,150.344955 
	C360.964172,146.906921 360.570557,143.468872 360.176941,140.030838 
	C360.625092,135.439957 360.591980,130.736954 361.629578,126.283394 
	C363.364532,118.836411 368.517914,114.607208 374.559509,114.745575 
	C380.159302,114.873817 383.523041,118.325539 385.759766,126.891418 
	C386.441254,133.280991 387.172516,138.886810 387.537933,144.516373 
	C388.563690,160.316727 388.768707,176.102280 383.283844,191.278214 
	C379.410156,201.996292 376.668243,203.661392 365.938873,203.103058 
	C359.690430,195.542206 353.441986,187.981354 346.864380,179.838379 
	C343.319550,173.733551 340.103912,168.210892 336.696014,162.357971 
	C334.396240,172.036667 332.834229,181.339966 329.860565,190.167755 
	C327.871246,196.073242 323.875946,201.302979 320.778290,206.835098 
	C315.400452,207.611313 312.475800,204.162720 311.196838,199.973480 
	C309.723907,195.148987 308.899719,189.938965 308.888611,184.893982 
	C308.864258,173.798828 309.528839,162.702179 309.927948,150.710266 
	C310.647369,143.033600 311.351074,136.252808 312.054779,129.472015 
M361.513428,152.427338 
	C361.513428,152.427338 361.488251,152.482300 361.513428,152.427338 
z"/>
<path fill="#FE7420" opacity="1.000000" stroke="none" 
	d="
M347.830780,251.375748 
	C348.889313,247.734085 349.610046,243.950607 351.068451,240.476822 
	C355.850983,229.085190 366.953156,226.213928 376.430878,234.126923 
	C379.643127,236.808853 381.872101,240.668518 384.841736,244.598389 
	C389.052856,253.021255 392.972626,260.835724 396.892426,268.650177 
	C397.258057,268.491699 397.623688,268.333221 397.989288,268.174744 
	C397.603271,264.597107 397.217224,261.019470 396.831177,257.441833 
	C397.241608,252.660248 397.147400,247.764679 398.194824,243.126953 
	C399.405182,237.767731 402.414032,233.249008 408.345612,231.997635 
	C415.261353,230.538635 419.617676,234.143250 422.115204,243.775818 
	C423.008636,255.145309 424.419678,265.715820 424.519989,276.298767 
	C424.626648,287.555756 423.703003,298.861511 419.313019,309.508453 
	C415.274139,319.303986 412.703522,320.931244 402.693909,320.118103 
	C396.368744,312.503326 390.043579,304.888550 383.353760,296.741547 
	C379.853333,290.819702 376.717621,285.430054 373.138580,279.278473 
	C372.588867,281.309601 372.274048,282.389191 372.005005,283.480072 
	C369.658295,292.995880 367.789001,302.665955 364.771637,311.963684 
	C363.360443,316.311951 359.735321,319.941742 357.113586,323.897186 
	C351.287292,324.437378 348.435913,320.492889 347.300476,315.975616 
	C345.875458,310.306335 345.742767,304.312164 345.056732,297.589905 
	C345.984344,281.606323 346.907562,266.491028 347.830780,251.375748 
z"/>
<path fill="#7B3FED" opacity="1.000000" stroke="none" 
	d="
M200.931030,207.470291 
	C210.124527,206.529495 213.724304,203.580856 215.118759,194.414536 
	C215.887741,189.359680 215.730865,184.164185 215.995865,179.032333 
	C216.192520,175.223450 216.232361,171.397598 216.633377,167.610138 
	C217.330231,161.028580 221.088013,156.978058 227.148636,154.323135 
	C233.302429,151.627396 239.588303,148.793716 244.965363,144.857880 
	C255.428940,137.198898 259.904083,126.868423 255.878021,113.410645 
	C269.399780,120.187416 272.704224,138.478302 262.679688,150.691360 
	C257.396545,157.127930 250.770096,161.737839 242.973526,164.721222 
	C229.800995,169.761719 227.567047,172.960373 227.164642,187.251343 
	C227.005295,192.910614 227.305237,198.597031 226.875244,204.231339 
	C226.113251,214.215454 220.854492,219.600082 212.880112,218.937241 
	C206.065994,218.370819 202.817352,213.815659 200.931030,207.470291 
z"/>
<path fill="#7B3EEC" opacity="1.000000" stroke="none" 
	d="
M91.021622,323.906921 
	C116.272423,326.586456 143.573975,309.042664 153.883957,282.968628 
	C155.626022,278.562927 156.862747,273.957397 158.216690,269.801117 
	C160.061569,279.104675 161.941147,288.583221 163.838226,298.435425 
	C153.768127,320.341431 136.003387,331.373810 113.333755,335.554291 
	C101.634521,337.711792 94.280022,333.881622 91.021622,323.906921 
z"/>
<path fill="#7B3FEC" opacity="1.000000" stroke="none" 
	d="
M231.795349,261.008087 
	C235.441879,270.907318 239.088409,280.806519 242.791138,290.994507 
	C241.827728,297.162537 241.287064,303.174408 239.702454,308.897278 
	C234.007904,329.463257 217.256805,339.594116 197.150681,335.005524 
	C189.252151,333.202911 183.269440,328.870819 179.406433,321.303040 
	C185.990067,321.876862 192.825500,324.108765 199.332901,323.386200 
	C216.670197,321.461243 227.189499,309.996246 229.810745,290.367523 
	C231.053787,281.059296 230.311356,271.485931 230.786652,261.546295 
	C231.335022,261.042633 231.565186,261.025360 231.795349,261.008087 
z"/>
<path fill="#7C40EC" opacity="1.000000" stroke="none" 
	d="
M402.818359,320.438782 
	C412.703522,320.931244 415.274139,319.303986 419.313019,309.508453 
	C423.703003,298.861511 424.626648,287.555756 424.519989,276.298767 
	C424.419678,265.715820 423.008636,255.145309 422.204193,244.130798 
	C428.556458,244.725296 431.973328,247.586670 432.933533,253.676102 
	C436.126434,273.925385 437.890015,294.251221 432.826050,314.444580 
	C431.601288,319.328613 429.374603,324.155609 426.685181,328.427429 
	C423.536530,333.428619 418.585419,334.327972 413.760101,330.880463 
	C409.777130,328.034790 406.521027,324.171722 402.818359,320.438782 
z"/>
<path fill="#7B3FEC" opacity="1.000000" stroke="none" 
	d="
M347.497559,251.296570 
	C346.907562,266.491028 345.984344,281.606323 344.995239,297.102295 
	C339.506317,306.017792 334.186768,314.621094 328.606903,323.052094 
	C326.518372,326.207825 324.146942,329.324646 321.341278,331.827942 
	C314.514587,337.918854 307.212585,337.116882 301.471283,329.963104 
	C300.132507,328.294922 299.149414,326.341339 297.893921,324.164429 
	C303.310638,324.391174 308.354706,322.736572 311.557312,318.419769 
	C324.506714,300.965240 336.793579,283.050446 343.738037,262.168701 
	C344.809143,258.947845 344.625610,255.309753 345.075653,251.422760 
	C345.807434,251.059723 346.485901,251.138550 347.497559,251.296570 
z"/>
<path fill="#7B3FED" opacity="1.000000" stroke="none" 
	d="
M366.068359,203.409348 
	C376.668243,203.661392 379.410156,201.996292 383.283844,191.278214 
	C388.768707,176.102280 388.563690,160.316727 387.537933,144.516373 
	C387.172516,138.886810 386.441254,133.280991 385.917389,127.203918 
	C391.778259,127.154068 395.284149,130.523285 396.203918,135.978790 
	C399.823853,157.449738 401.215057,178.947800 395.654846,200.358948 
	C395.404633,201.322479 395.055450,202.263687 394.703827,203.197021 
	C389.072357,218.144058 380.561615,219.735992 369.818054,207.850372 
	C368.589813,206.491577 367.403564,205.094803 366.068359,203.409348 
z"/>
<path fill="#7B3FEC" opacity="1.000000" stroke="none" 
	d="
M133.729156,204.440094 
	C144.031525,208.084335 154.413818,207.575073 164.811157,203.903046 
	C179.041840,198.877197 183.663040,187.140121 185.986542,173.781815 
	C186.517334,170.730194 186.906815,167.654022 187.648315,164.611725 
	C188.785950,176.887131 185.534714,189.626160 192.161972,201.565765 
	C185.429993,215.047318 173.263504,218.379959 159.973663,218.834671 
	C148.797577,219.217087 139.361008,215.404022 133.729156,204.440094 
z"/>
<path fill="#7B3FEC" opacity="1.000000" stroke="none" 
	d="
M320.852325,207.222595 
	C323.875946,201.302979 327.871246,196.073242 329.860565,190.167755 
	C332.834229,181.339966 334.396240,172.036667 336.696014,162.357971 
	C340.103912,168.210892 343.319550,173.733551 346.652283,179.554504 
	C344.556946,188.531174 342.506378,197.255814 340.046844,205.863602 
	C339.148773,209.006683 337.585571,212.072693 335.787537,214.821869 
	C332.140442,220.398361 327.660156,220.403702 324.029297,214.867416 
	C322.608856,212.701553 321.938385,210.043808 320.852325,207.222595 
z"/>
<path fill="#7B3FEC" opacity="1.000000" stroke="none" 
	d="
M357.199707,324.252747 
	C359.735321,319.941742 363.360443,316.311951 364.771637,311.963684 
	C367.789001,302.665955 369.658295,292.995880 372.005005,283.480072 
	C372.274048,282.389191 372.588867,281.309601 373.138580,279.278473 
	C376.717621,285.430054 379.853333,290.819702 383.077179,296.548401 
	C380.820282,306.045410 378.505585,315.211365 376.098663,324.352966 
	C375.723022,325.779663 375.226593,327.373199 374.267090,328.408752 
	C371.802277,331.069061 369.279083,335.163879 366.352234,335.564301 
	C361.774048,336.190613 359.781403,331.391571 358.192291,327.458862 
	C357.819855,326.537079 357.584320,325.559967 357.199707,324.252747 
z"/>
<path fill="#7C40EC" opacity="1.000000" stroke="none" 
	d="
M157.243835,183.343338 
	C152.544708,184.883118 149.793625,181.841568 148.501282,178.258591 
	C146.784760,173.499527 145.543030,168.367676 145.279388,163.334076 
	C144.898590,156.063614 145.765778,148.737152 145.747223,141.435471 
	C145.732071,135.475403 145.199417,129.516647 144.897034,123.083321 
	C150.317307,123.413994 153.748718,126.825439 154.857361,131.826233 
	C156.102570,137.443146 156.777100,143.266708 156.953857,149.023285 
	C157.300232,160.304886 157.129120,171.602356 157.243835,183.343338 
z"/>
<path fill="#0F0F0F" opacity="1.000000" stroke="none" 
	d="
M125.277641,378.055237 
	C124.420990,378.025818 123.318336,378.330292 123.309334,378.664215 
	C123.192970,382.978516 123.232323,387.297058 123.232323,391.820251 
	C121.171410,391.820251 119.381668,391.820251 117.280769,391.820251 
	C117.280769,383.041656 117.280769,374.123169 117.280769,364.928009 
	C121.091965,363.419189 123.815483,364.532318 125.927551,368.405731 
	C128.101791,372.393158 130.776855,376.107483 134.068298,381.245636 
	C134.068298,374.814117 134.068298,369.935883 134.068298,364.756531 
	C136.381149,364.756531 138.264587,364.756531 140.376114,364.756531 
	C140.376114,373.920013 140.376114,382.824615 140.376114,391.631653 
	C135.982208,393.044312 133.288483,391.615845 131.349289,387.694550 
	C129.738098,384.436493 127.500229,381.488281 125.277641,378.055237 
z"/>
<path fill="#121212" opacity="1.000000" stroke="none" 
	d="
M298.108826,374.380646 
	C296.682281,376.861572 295.294708,378.976318 293.583496,381.584320 
	C295.901611,384.417145 298.702881,387.840393 301.504150,391.263611 
	C301.323303,391.743561 301.142456,392.223541 300.961639,392.703491 
	C298.154327,391.793457 294.933838,391.457489 292.653076,389.815918 
	C290.252380,388.088074 288.750061,385.111938 286.034851,381.628845 
	C286.034851,385.782410 286.034851,388.666260 286.034851,391.777954 
	C283.642212,391.777954 281.740173,391.777954 279.630402,391.777954 
	C279.630402,382.828583 279.630402,374.035797 279.630402,365.248383 
	C293.437164,362.493011 299.413818,366.250977 298.108826,374.380646 
M285.883453,371.923553 
	C285.883453,373.493591 285.883453,375.063629 285.883453,376.633667 
	C286.320007,376.881042 286.756561,377.128448 287.193115,377.375824 
	C288.658752,376.163361 290.393036,375.140594 291.451782,373.640900 
	C291.849854,373.077057 290.882324,370.590912 290.182281,370.417877 
	C288.890594,370.098572 287.336548,370.840576 285.883453,371.923553 
z"/>
<path fill="#121212" opacity="1.000000" stroke="none" 
	d="
M449.549194,380.267914 
	C451.759094,384.077423 454.325745,387.657318 456.988953,391.371887 
	C448.510468,394.975128 446.833038,386.523499 441.838257,382.312164 
	C441.838257,385.790558 441.838257,388.626007 441.838257,391.740082 
	C439.386200,391.740082 437.495087,391.740082 435.359070,391.740082 
	C435.359070,382.810028 435.359070,373.918060 435.359070,364.488495 
	C438.752594,364.488495 442.030975,364.406372 445.303497,364.509613 
	C449.257751,364.634308 452.652649,366.067841 453.735107,370.175568 
	C454.789368,374.176422 453.785004,377.762421 449.549194,380.267914 
M442.323486,369.796417 
	C442.080933,372.045258 441.838348,374.294067 441.595795,376.542908 
	C442.152557,376.816345 442.709351,377.089783 443.266113,377.363220 
	C444.595459,376.064453 445.924774,374.765686 447.254120,373.466919 
	C445.913300,372.191986 444.572479,370.917053 442.323486,369.796417 
z"/>
<path fill="#0A0A0A" opacity="1.000000" stroke="none" 
	d="
M380.815643,364.515381 
	C381.619446,367.785156 382.001373,371.010468 382.419006,374.537109 
	C387.684998,371.619659 388.932312,361.804962 398.472565,365.008881 
	C395.051270,369.153992 391.730011,373.177917 388.136230,377.531982 
	C392.076111,382.066620 396.041321,386.630402 400.538452,391.806366 
	C396.309570,391.761780 392.673462,393.382141 389.798950,389.431366 
	C387.698395,386.544373 385.123322,384.002655 382.063263,380.512634 
	C382.063263,384.913086 382.063263,388.305725 382.063263,391.846069 
	C379.856750,391.846069 378.082733,391.846069 376.057129,391.846069 
	C376.057129,382.872681 376.057129,373.966309 376.057129,364.707001 
	C377.522919,364.627197 378.958344,364.549042 380.815643,364.515381 
z"/>
<path fill="#7C40EC" opacity="1.000000" stroke="none" 
	d="
M264.556122,324.358276 
	C275.374084,325.005157 279.272247,316.257050 284.250732,309.733276 
	C287.712402,313.868530 291.166168,317.994354 294.842743,322.338501 
	C293.273071,324.927490 291.559631,327.363159 289.674225,329.657501 
	C282.343872,338.577789 273.302765,338.135956 266.890869,328.567871 
	C266.068054,327.339996 265.411530,326.000641 264.556122,324.358276 
z"/>
<path fill="#0D0D0D" opacity="1.000000" stroke="none" 
	d="
M321.877747,364.446899 
	C323.188812,364.936462 324.655914,365.200073 324.970673,365.948395 
	C328.541382,374.437164 331.935822,383.000092 335.508331,391.868042 
	C332.983093,391.868042 331.023560,391.868042 328.748413,391.868042 
	C327.955688,384.808685 322.597015,386.612122 318.224518,386.653442 
	C317.374023,386.661469 315.951050,387.664429 315.784027,388.425995 
	C314.701294,393.363586 311.216431,392.011871 307.615051,391.784546 
	C311.078796,383.246124 314.336395,374.958282 317.877045,366.793152 
	C318.353699,365.694031 320.256256,365.213196 321.877747,364.446899 
M322.405365,380.983032 
	C324.370087,379.298218 324.370087,379.298218 321.346100,373.706360 
	C320.389557,376.176147 319.544312,378.358612 318.593292,380.814087 
	C319.942657,380.891663 320.751831,380.938171 322.405365,380.983032 
z"/>
<path fill="#0D0D0D" opacity="1.000000" stroke="none" 
	d="
M418.867554,375.390381 
	C420.792236,375.390717 422.252563,375.390717 423.884918,375.390717 
	C423.884918,377.453064 423.884918,379.041992 423.884918,381.002197 
	C420.955597,381.002197 418.200165,381.002197 415.240906,381.002197 
	C415.240906,382.946991 415.240906,384.520081 415.240906,386.405762 
	C418.216644,386.405762 420.987885,386.405762 424.190186,386.405762 
	C424.332672,388.244568 424.453827,389.808380 424.601196,391.710205 
	C419.235413,391.710205 414.176453,391.710205 409.008118,391.710205 
	C409.008118,382.763336 409.008118,373.835602 409.008118,364.677551 
	C414.115906,364.677551 419.015503,364.677551 424.219360,364.677551 
	C424.219360,366.419769 424.219360,367.983307 424.219360,369.973022 
	C421.239899,369.973022 418.331879,369.973022 415.267731,369.973022 
	C415.111572,372.839844 413.692383,375.937225 418.867554,375.390381 
z"/>
<path fill="#171717" opacity="1.000000" stroke="none" 
	d="
M151.402649,387.737854 
	C151.402634,379.835938 151.402634,372.406403 151.402634,364.694427 
	C156.782043,364.694427 161.686981,364.694427 166.962189,364.694427 
	C167.059753,366.203186 167.162628,367.793793 167.296768,369.867950 
	C164.184875,369.867950 161.301224,369.867950 158.169189,369.867950 
	C158.169189,371.877563 158.169189,373.423218 158.169189,375.433411 
	C161.104156,375.433411 163.847626,375.433411 166.739716,375.433411 
	C166.739716,377.472626 166.739716,379.050537 166.739716,380.872772 
	C163.915390,380.872772 161.295944,380.872772 158.174774,380.872772 
	C158.065460,382.622864 157.969223,384.163818 157.839188,386.245758 
	C160.979187,386.245758 163.849411,386.245758 166.960495,386.245758 
	C166.960495,388.353119 166.960495,389.944061 166.960495,392.045135 
	C162.865509,392.045135 158.761383,391.834015 154.690659,392.111938 
	C151.434677,392.334229 151.146271,390.645142 151.402649,387.737854 
z"/>
<path fill="#0A0A0A" opacity="1.000000" stroke="none" 
	d="
M344.219910,371.413025 
	C350.506714,363.492340 357.588531,361.956085 366.069183,366.599152 
	C365.312134,368.167419 364.547150,369.752136 363.706268,371.494049 
	C358.586273,369.727356 353.319824,368.950531 350.480499,374.392181 
	C349.315247,376.625427 349.659241,380.793427 351.051270,382.974030 
	C353.919312,387.466919 358.691925,386.618134 363.484344,384.989075 
	C364.308014,386.428741 365.177429,387.948334 366.035461,389.448120 
	C360.807739,393.502441 353.377808,393.453613 348.050690,389.440125 
	C342.363922,385.155701 340.958099,378.959625 344.219910,371.413025 
z"/>
<path fill="#0B0B0B" opacity="1.000000" stroke="none" 
	d="
M206.799591,389.396576 
	C207.273590,387.409882 207.976440,385.701477 208.648224,384.068604 
	C211.433792,385.047394 213.679733,386.178009 216.038742,386.513489 
	C217.127563,386.668335 218.437347,385.269348 219.646942,384.574860 
	C218.987274,383.533997 218.533722,382.228119 217.618271,381.516144 
	C216.335800,380.518707 214.682968,380.011230 213.235382,379.209595 
	C209.707642,377.256134 207.589157,374.515930 208.795502,370.256622 
	C210.004837,365.986725 213.207489,364.006500 217.372894,364.093262 
	C220.080093,364.149658 222.767471,365.157990 225.940399,365.842682 
	C225.054626,367.970795 224.449203,369.425385 223.749466,371.106537 
	C221.754333,370.683746 219.864029,370.010010 217.966995,369.990479 
	C216.938171,369.979858 215.897827,371.083496 214.862671,371.684509 
	C215.448517,372.574249 215.840759,373.764435 216.659851,374.292267 
	C218.459106,375.451782 220.575775,376.117950 222.378281,377.273468 
	C225.324631,379.162292 227.423508,381.599121 226.545944,385.525330 
	C225.678040,389.408173 223.207581,392.089355 219.401657,391.981140 
	C215.258728,391.863434 211.151306,390.496948 206.799591,389.396576 
z"/>
<path fill="#0A0A0A" opacity="1.000000" stroke="none" 
	d="
M190.566788,364.200134 
	C192.651093,364.904388 194.328293,365.529053 196.367783,366.288635 
	C195.557800,368.083466 194.905594,369.528656 194.328995,370.806335 
	C193.701752,370.942810 193.387451,371.061798 193.069519,371.072388 
	C190.490891,371.158295 187.911621,371.223938 185.332520,371.295746 
	C187.119064,372.890228 188.703125,374.837219 190.735138,376.004242 
	C194.718918,378.292175 198.101913,380.702484 196.944244,386.031952 
	C196.040833,390.190918 192.022736,392.883209 186.438583,392.369629 
	C183.152008,392.067322 179.961456,390.720642 176.159958,389.689758 
	C177.593430,387.159607 178.457703,385.634125 179.352310,384.055115 
	C181.658813,384.963562 183.712006,386.176971 185.890823,386.476440 
	C187.168564,386.652069 188.646332,385.372284 190.034134,384.747162 
	C189.309814,383.597290 188.774918,382.239777 187.807114,381.356781 
	C186.868866,380.500793 185.478027,380.147522 184.299423,379.547058 
	C180.564758,377.644531 178.028107,374.861023 179.192535,370.429749 
	C180.281631,366.285126 183.443985,364.284180 187.675262,364.017151 
	C188.497955,363.965210 189.331284,364.081726 190.566788,364.200134 
z"/>
<path fill="#FF7824" opacity="1.000000" stroke="none" 
	d="
M305.974182,132.927841 
	C304.871338,133.551300 303.706421,134.087158 302.678345,134.816055 
	C300.398102,136.432632 298.367462,138.545563 295.880005,139.672073 
	C294.356750,140.361893 291.733398,140.220322 290.429596,139.292328 
	C289.382965,138.547363 288.821625,135.760300 289.358765,134.397110 
	C291.218109,129.678360 293.226532,124.905617 296.002014,120.696640 
	C298.179657,117.394295 302.156158,115.470779 305.994171,117.730675 
	C310.108551,120.153275 308.804077,124.348679 307.602966,128.018997 
	C307.098175,129.561600 306.089203,130.939209 305.658417,132.687347 
	C306.007385,132.982849 305.974182,132.927841 305.974182,132.927841 
z"/>
<path fill="#0B0B0B" opacity="1.000000" stroke="none" 
	d="
M47.613609,364.760712 
	C52.810383,364.522583 57.610992,364.522583 62.728748,364.522583 
	C62.825062,366.372742 62.906937,367.945526 63.013027,369.983459 
	C59.649223,369.983459 56.549126,369.983459 53.383347,369.983459 
	C53.383347,371.874878 53.383347,373.314941 53.383347,375.102783 
	C56.272152,375.290283 59.028267,375.469208 61.927223,375.657379 
	C61.927223,377.462402 61.927223,379.054718 61.927223,381.035217 
	C58.978165,381.035217 56.211109,381.035217 53.238415,381.035217 
	C53.238415,384.735474 53.238415,388.048096 53.238415,391.689117 
	C51.187386,391.689117 49.321819,391.689117 47.217449,391.689117 
	C47.217449,382.859589 47.217449,373.929199 47.613609,364.760712 
z"/>
<path fill="#0F0F0F" opacity="1.000000" stroke="none" 
	d="
M255.293549,364.437103 
	C260.394836,364.436890 265.031372,364.436890 270.035553,364.436890 
	C270.145691,366.268005 270.240967,367.852753 270.362213,369.868958 
	C268.179169,369.966278 266.277863,370.051056 263.977020,370.153625 
	C263.977020,377.373840 263.977020,384.462036 263.977020,391.783386 
	C261.676422,391.783386 259.783051,391.783386 257.636047,391.783386 
	C257.636047,384.633545 257.636047,377.665649 257.636047,370.304993 
	C255.497513,370.156494 253.578674,370.023285 251.237534,369.860718 
	C251.134338,368.358398 251.027451,366.802185 250.893692,364.854706 
	C252.357071,364.699493 253.592926,364.568420 255.293549,364.437103 
z"/>
<path fill="#0D0D0D" opacity="1.000000" stroke="none" 
	d="
M97.041443,364.445618 
	C100.655296,364.445618 103.790009,364.445618 107.347763,364.445618 
	C107.500359,366.272125 107.629829,367.821869 107.791443,369.756348 
	C105.560661,369.901337 103.626755,370.027039 101.165512,370.186981 
	C101.165512,377.310150 101.165512,384.520172 101.165512,391.867432 
	C98.870239,391.867432 97.097763,391.867432 95.006859,391.867432 
	C95.006859,384.707733 95.006859,377.630676 95.006859,370.340424 
	C92.633072,370.134735 90.554070,369.954590 88.322235,369.761200 
	C88.322235,368.122131 88.322235,366.681396 88.322235,364.445587 
	C91.091354,364.445587 93.826820,364.445587 97.041443,364.445618 
z"/>
<path fill="#7F41E8" opacity="1.000000" stroke="none" 
	d="
M266.382812,265.866821 
	C267.585785,269.368744 268.480011,273.018127 270.065552,276.337280 
	C272.330048,281.077759 271.251221,285.218018 268.651306,289.889526 
	C263.397827,276.753448 258.309692,264.030853 253.157135,250.915710 
	C259.092926,252.568954 261.634064,257.792999 264.727783,262.913574 
	C265.065063,263.007965 265.003876,262.999603 264.940460,263.347534 
	C265.378967,264.419281 265.880890,265.143066 266.382812,265.866821 
z"/>
<path fill="#0A0A0A" opacity="1.000000" stroke="none" 
	d="
M76.179764,392.017822 
	C74.753838,391.155823 72.959740,390.315643 72.935959,389.428040 
	C72.718224,381.299774 72.807892,373.163300 72.807892,364.745636 
	C74.871262,364.745636 76.620560,364.745636 79.009193,364.745636 
	C79.009193,373.251648 79.052155,381.842682 78.907356,390.430542 
	C78.898224,390.972198 77.424881,391.489166 76.179764,392.017822 
z"/>
<path fill="#7C40EC" opacity="1.000000" stroke="none" 
	d="
M311.702087,129.582596 
	C311.351074,136.252808 310.647369,143.033600 309.867126,150.224304 
	C309.041687,150.977234 308.302185,151.585007 307.542084,151.611923 
	C305.531128,151.683136 303.009247,152.191010 301.655151,151.203140 
	C300.588562,150.424988 300.283569,147.455124 300.818909,145.852463 
	C302.215729,141.670883 304.259644,137.705429 306.009827,133.290817 
	C305.974182,132.927841 306.007385,132.982849 305.978027,132.971100 
	C307.748901,131.870621 309.549164,130.781891 311.702087,129.582596 
z"/>
<path fill="#7F41E8" opacity="1.000000" stroke="none" 
	d="
M316.537415,252.764969 
	C311.996918,265.025970 307.075989,277.089142 302.155090,289.152344 
	C301.825989,289.138977 301.496918,289.125610 301.167816,289.112244 
	C301.603485,285.672455 301.542755,282.072662 302.588287,278.829468 
	C304.257812,273.650696 306.914734,268.794769 308.669464,263.637421 
	C309.878387,260.084229 310.268250,256.252380 311.091797,252.103302 
	C312.825226,251.963409 314.491119,252.265289 316.537415,252.764969 
z"/>
<path fill="#7F41E8" opacity="1.000000" stroke="none" 
	d="
M165.249329,246.462708 
	C163.973068,249.951599 162.574783,253.106461 160.753998,256.629578 
	C159.900696,256.963470 159.469849,256.929077 159.039017,256.894684 
	C157.423187,249.809006 155.807358,242.723312 154.168564,235.271545 
	C160.160400,236.342957 162.162933,241.706375 165.249329,246.462708 
z"/>
<path fill="#7F41E8" opacity="1.000000" stroke="none" 
	d="
M396.564026,257.199646 
	C397.217224,261.019470 397.603271,264.597107 397.989288,268.174744 
	C397.623688,268.333221 397.258057,268.491699 396.892426,268.650177 
	C392.972626,260.835724 389.052856,253.021255 385.060242,244.821655 
	C388.757233,248.610153 392.527039,252.783783 396.564026,257.199646 
z"/>
<path fill="#7F41E8" opacity="1.000000" stroke="none" 
	d="
M359.877869,139.742584 
	C360.570557,143.468872 360.964172,146.906921 361.357788,150.344955 
	C360.914307,150.531006 360.470825,150.717056 360.027374,150.903107 
	C356.335968,143.545044 352.644562,136.186981 348.861084,128.482361 
	C352.372284,131.908646 355.975555,135.681488 359.877869,139.742584 
z"/>
<path fill="#7F41E8" opacity="1.000000" stroke="none" 
	d="
M231.823517,260.558533 
	C231.565186,261.025360 231.335022,261.042633 230.758392,261.084106 
	C229.283157,257.167450 228.154373,253.226562 226.997681,248.868683 
	C228.211853,249.266006 229.453903,250.080322 230.939880,251.077393 
	C231.406403,254.209778 231.629028,257.159393 231.823517,260.558533 
z"/>
<path fill="#7B3FED" opacity="1.000000" stroke="none" 
	d="
M255.978348,112.825821 
	C255.755798,112.916916 255.492447,112.782242 255.205032,112.395813 
	C255.515182,112.159927 255.767380,112.311928 255.978348,112.825821 
z"/>
<path fill="#7B3EEC" opacity="1.000000" stroke="none" 
	d="
M196.888000,304.706573 
	C189.906296,303.068451 185.908386,298.468658 185.149185,290.080444 
	C184.673569,284.825409 184.834808,279.468719 185.206375,274.192596 
	C185.632584,268.140503 188.942139,263.716858 194.211868,260.729218 
	C201.258835,256.734039 206.953537,259.077789 209.042496,266.881592 
	C209.342010,268.000549 209.577347,269.136749 209.470917,270.696289 
	C203.252060,273.300293 198.045700,276.740723 197.236313,283.172760 
	C196.345352,290.253204 196.940369,297.520599 196.888000,304.706573 
z"/>
<path fill="#7B3FEC" opacity="1.000000" stroke="none" 
	d="
M117.024055,287.027527 
	C111.116508,290.599792 106.492195,288.932129 106.164429,282.294647 
	C105.674561,272.374359 106.011429,262.393677 106.433113,252.457230 
	C106.609650,248.297318 109.570839,246.302338 113.768761,247.067200 
	C121.191681,248.419632 127.243469,251.708694 129.507111,259.676453 
	C120.183304,257.538879 117.421967,259.548126 117.267853,268.643036 
	C117.164024,274.770813 117.103790,280.899323 117.024055,287.027527 
z"/>
<path fill="#FDFBFD" opacity="1.000000" stroke="none" 
	d="
M197.254532,304.791504 
	C196.940369,297.520599 196.345352,290.253204 197.236313,283.172760 
	C198.045700,276.740723 203.252060,273.300293 209.437469,271.072144 
	C209.174774,278.719696 209.092255,286.511261 207.796219,294.095459 
	C206.889420,299.401794 203.853073,303.971039 197.254532,304.791504 
z"/>
<path fill="#FBF7FC" opacity="1.000000" stroke="none" 
	d="
M117.350006,286.936951 
	C117.103790,280.899323 117.164024,274.770813 117.267853,268.643036 
	C117.421967,259.548126 120.183304,257.538879 129.499603,260.037781 
	C132.149796,267.527924 128.216583,273.335907 124.575653,279.046936 
	C122.732529,281.937958 120.004112,284.264587 117.350006,286.936951 
z"/>
<path fill="#FE7420" opacity="1.000000" stroke="none" 
	d="
M158.994965,257.255646 
	C159.469849,256.929077 159.900696,256.963470 160.655212,256.969513 
	C160.714111,259.044647 162.077606,262.282227 157.233749,261.757141 
	C157.902069,260.145660 158.426483,258.881134 158.994965,257.255646 
z"/>
<path fill="#FE7420" opacity="1.000000" stroke="none" 
	d="
M158.658783,267.201050 
	C159.035095,267.039368 159.358170,267.086609 159.681259,267.133850 
	C159.322693,267.225891 158.964111,267.317932 158.658783,267.201050 
z"/>
<path fill="#7B3FEC" opacity="1.000000" stroke="none" 
	d="
M229.311722,136.377487 
	C228.247025,137.112442 227.265442,138.034149 226.103745,138.551147 
	C219.923233,141.301712 217.961105,139.971222 218.060440,133.338593 
	C218.134659,128.383072 217.818649,123.407516 218.156235,118.473709 
	C218.575256,112.349648 222.576508,110.470695 227.092651,114.581520 
	C229.718597,116.971786 231.051285,120.782837 232.580750,124.416397 
	C228.079620,127.920143 229.380432,132.320541 229.311722,136.377487 
z"/>
<path fill="#B95689" opacity="1.000000" stroke="none" 
	d="
M189.055267,143.021454 
	C189.051407,149.851349 189.051407,156.186417 189.051407,162.521500 
	C188.534210,162.510895 188.017014,162.500275 187.499817,162.489670 
	C187.499817,152.115051 187.499817,141.740448 187.499817,131.365829 
	C188.019577,131.347031 188.539352,131.328217 189.059113,131.309418 
	C189.059113,135.048492 189.059113,138.787567 189.055267,143.021454 
z"/>
<path fill="#FBF7FC" opacity="1.000000" stroke="none" 
	d="
M229.612030,136.198425 
	C229.380432,132.320541 228.079620,127.920143 232.557831,124.775360 
	C233.764374,128.944351 233.288101,132.866135 229.612030,136.198425 
z"/>
<path fill="#FFFFFF" opacity="1.000000" stroke="none" 
	d="
M266.339905,265.505585 
	C265.880890,265.143066 265.378967,264.419281 264.948242,263.317627 
	C265.445282,263.674622 265.871124,264.409485 266.339905,265.505585 
z"/>
<path fill="#7F41E8" opacity="1.000000" stroke="none" 
	d="
M361.500854,152.454819 
	C361.488251,152.482300 361.513428,152.427338 361.500854,152.454819 
z"/>
<path fill="#FBF7FC" opacity="1.000000" stroke="none" 
	d="
M285.887634,371.531982 
	C287.336548,370.840576 288.890594,370.098572 290.182281,370.417877 
	C290.882324,370.590912 291.849854,373.077057 291.451782,373.640900 
	C290.393036,375.140594 288.658752,376.163361 287.193115,377.375824 
	C286.756561,377.128448 286.320007,376.881042 285.883453,376.633667 
	C285.883453,375.063629 285.883453,373.493591 285.887634,371.531982 
z"/>
<path fill="#FBF7FC" opacity="1.000000" stroke="none" 
	d="
M442.777588,369.719269 
	C444.572479,370.917053 445.913300,372.191986 447.254120,373.466919 
	C445.924774,374.765686 444.595459,376.064453 443.266113,377.363220 
	C442.709351,377.089783 442.152557,376.816345 441.595795,376.542908 
	C441.838348,374.294067 442.080933,372.045258 442.777588,369.719269 
z"/>
<path fill="#FBF7FC" opacity="1.000000" stroke="none" 
	d="
M321.983154,380.983887 
	C320.751831,380.938171 319.942657,380.891663 318.593292,380.814087 
	C319.544312,378.358612 320.389557,376.176147 321.346100,373.706360 
	C324.370087,379.298218 324.370087,379.298218 321.983154,380.983887 
z"/>
</svg>